<?xml version="1.0" encoding="UTF-8" standalone="no"?>
<!DOCTYPE svg PUBLIC "-//W3C//DTD SVG 1.1//EN"
 "http://www.w3.org/Graphics/SVG/1.1/DTD/svg11.dtd">
<!-- Generated by graphviz version 2.43.0 (0)
 -->
<!-- Title: %3 Pages: 1 -->
<svg width="768pt" height="260pt"
 viewBox="0.00 0.00 767.59 260.00" xmlns="http://www.w3.org/2000/svg" xmlns:xlink="http://www.w3.org/1999/xlink">
<g id="graph0" class="graph" transform="scale(1 1) rotate(0) translate(4 256)">
<title>%3</title>
<polygon fill="white" stroke="transparent" points="-4,4 -4,-256 763.59,-256 763.59,4 -4,4"/>
<!-- inchi -->
<g id="node1" class="node">
<title>inchi</title>
<ellipse fill="none" stroke="black" cx="256.75" cy="-162" rx="33.29" ry="18"/>
<text text-anchor="middle" x="256.75" y="-158.3" font-family="Times,serif" font-size="14.00">inchi</text>
</g>
<!-- chembl -->
<g id="node2" class="node">
<title>chembl</title>
<ellipse fill="none" stroke="black" cx="253.75" cy="-90" rx="44.39" ry="18"/>
<text text-anchor="middle" x="253.75" y="-86.3" font-family="Times,serif" font-size="14.00">chembl</text>
</g>
<!-- inchi&#45;&gt;chembl -->
<g id="edge1" class="edge">
<title>inchi&#45;&gt;chembl</title>
<path fill="none" stroke="black" d="M256.01,-143.7C255.67,-135.98 255.28,-126.71 254.91,-118.11"/>
<polygon fill="black" stroke="black" points="258.4,-117.95 254.48,-108.1 251.41,-118.25 258.4,-117.95"/>
</g>
<!-- drugbank -->
<g id="node3" class="node">
<title>drugbank</title>
<ellipse fill="none" stroke="black" cx="118.75" cy="-90" rx="55.49" ry="18"/>
<text text-anchor="middle" x="118.75" y="-86.3" font-family="Times,serif" font-size="14.00">drugbank</text>
</g>
<!-- inchi&#45;&gt;drugbank -->
<g id="edge2" class="edge">
<title>inchi&#45;&gt;drugbank</title>
<path fill="none" stroke="black" d="M233.34,-149.13C212.34,-138.47 181.13,-122.65 156.59,-110.2"/>
<polygon fill="black" stroke="black" points="158.05,-107.01 147.54,-105.61 154.88,-113.25 158.05,-107.01"/>
</g>
<!-- pubchem -->
<g id="node6" class="node">
<title>pubchem</title>
<ellipse fill="none" stroke="black" cx="368.75" cy="-90" rx="53.09" ry="18"/>
<text text-anchor="middle" x="368.75" y="-86.3" font-family="Times,serif" font-size="14.00">pubchem</text>
</g>
<!-- inchi&#45;&gt;pubchem -->
<g id="edge3" class="edge">
<title>inchi&#45;&gt;pubchem</title>
<path fill="none" stroke="black" d="M277.81,-147.83C294.11,-137.65 316.99,-123.35 335.72,-111.64"/>
<polygon fill="black" stroke="black" points="337.64,-114.57 344.27,-106.3 333.93,-108.63 337.64,-114.57"/>
</g>
<!-- inchikey -->
<g id="node9" class="node">
<title>inchikey</title>
<ellipse fill="none" stroke="black" cx="310.75" cy="-18" rx="49.29" ry="18"/>
<text text-anchor="middle" x="310.75" y="-14.3" font-family="Times,serif" font-size="14.00">inchikey</text>
</g>
<!-- chembl&#45;&gt;inchikey -->
<g id="edge4" class="edge">
<title>chembl&#45;&gt;inchikey</title>
<path fill="none" stroke="black" d="M266.97,-72.76C274.06,-64.06 282.94,-53.15 290.85,-43.43"/>
<polygon fill="black" stroke="black" points="293.6,-45.6 297.2,-35.63 288.17,-41.18 293.6,-45.6"/>
</g>
<!-- drugbank&#45;&gt;drugbank -->
<g id="edge6" class="edge">
<title>drugbank&#45;&gt;drugbank</title>
<path fill="none" stroke="black" d="M156.81,-103.14C175.45,-104.86 191.99,-100.48 191.99,-90 191.99,-81.49 181.07,-77 166.98,-76.54"/>
<polygon fill="black" stroke="black" points="166.69,-73.05 156.81,-76.86 166.91,-80.04 166.69,-73.05"/>
</g>
<!-- drugbank&#45;&gt;inchikey -->
<g id="edge5" class="edge">
<title>drugbank&#45;&gt;inchikey</title>
<path fill="none" stroke="black" d="M154.41,-76C186.39,-64.34 233.39,-47.2 267.51,-34.77"/>
<polygon fill="black" stroke="black" points="269.01,-37.94 277.2,-31.23 266.61,-31.37 269.01,-37.94"/>
</g>
<!-- drugcentral -->
<g id="node4" class="node">
<title>drugcentral</title>
<ellipse fill="none" stroke="black" cx="586.75" cy="-234" rx="65.79" ry="18"/>
<text text-anchor="middle" x="586.75" y="-230.3" font-family="Times,serif" font-size="14.00">drugcentral</text>
</g>
<!-- drugname -->
<g id="node5" class="node">
<title>drugname</title>
<ellipse fill="none" stroke="black" cx="445.75" cy="-234" rx="57.69" ry="18"/>
<text text-anchor="middle" x="445.75" y="-230.3" font-family="Times,serif" font-size="14.00">drugname</text>
</g>
<!-- unii -->
<g id="node8" class="node">
<title>unii</title>
<ellipse fill="none" stroke="black" cx="445.75" cy="-162" rx="28.7" ry="18"/>
<text text-anchor="middle" x="445.75" y="-158.3" font-family="Times,serif" font-size="14.00">unii</text>
</g>
<!-- drugname&#45;&gt;unii -->
<g id="edge7" class="edge">
<title>drugname&#45;&gt;unii</title>
<path fill="none" stroke="black" d="M445.75,-215.7C445.75,-207.98 445.75,-198.71 445.75,-190.11"/>
<polygon fill="black" stroke="black" points="449.25,-190.1 445.75,-180.1 442.25,-190.1 449.25,-190.1"/>
</g>
<!-- pubchem&#45;&gt;inchikey -->
<g id="edge8" class="edge">
<title>pubchem&#45;&gt;inchikey</title>
<path fill="none" stroke="black" d="M355,-72.41C347.78,-63.69 338.79,-52.85 330.8,-43.21"/>
<polygon fill="black" stroke="black" points="333.47,-40.94 324.39,-35.47 328.08,-45.4 333.47,-40.94"/>
</g>
<!-- rxnorm -->
<g id="node7" class="node">
<title>rxnorm</title>
<ellipse fill="none" stroke="black" cx="714.75" cy="-234" rx="44.69" ry="18"/>
<text text-anchor="middle" x="714.75" y="-230.3" font-family="Times,serif" font-size="14.00">rxnorm</text>
</g>
<!-- unii&#45;&gt;pubchem -->
<g id="edge10" class="edge">
<title>unii&#45;&gt;pubchem</title>
<path fill="none" stroke="black" d="M430.16,-146.83C419.78,-137.4 405.91,-124.78 393.97,-113.93"/>
<polygon fill="black" stroke="black" points="396.21,-111.24 386.46,-107.1 391.51,-116.42 396.21,-111.24"/>
</g>
<!-- unii&#45;&gt;inchikey -->
<g id="edge9" class="edge">
<title>unii&#45;&gt;inchikey</title>
<path fill="none" stroke="black" d="M465.94,-148.98C479.42,-139.69 496.04,-125.47 503.75,-108 510.2,-93.36 513.45,-84.72 503.75,-72 487.06,-50.11 417.1,-35.01 366.2,-26.69"/>
<polygon fill="black" stroke="black" points="366.72,-23.23 356.3,-25.11 365.63,-30.14 366.72,-23.23"/>
</g>
<!-- pharmgkb -->
<g id="node10" class="node">
<title>pharmgkb</title>
<ellipse fill="none" stroke="black" cx="147.75" cy="-162" rx="57.69" ry="18"/>
<text text-anchor="middle" x="147.75" y="-158.3" font-family="Times,serif" font-size="14.00">pharmgkb</text>
</g>
<!-- pharmgkb&#45;&gt;drugbank -->
<g id="edge11" class="edge">
<title>pharmgkb&#45;&gt;drugbank</title>
<path fill="none" stroke="black" d="M140.73,-144.05C137.46,-136.18 133.5,-126.62 129.85,-117.79"/>
<polygon fill="black" stroke="black" points="132.96,-116.17 125.9,-108.28 126.5,-118.85 132.96,-116.17"/>
</g>
<!-- ndc -->
<g id="node11" class="node">
<title>ndc</title>
<ellipse fill="none" stroke="black" cx="467.75" cy="-90" rx="27.1" ry="18"/>
<text text-anchor="middle" x="467.75" y="-86.3" font-family="Times,serif" font-size="14.00">ndc</text>
</g>
<!-- ndc&#45;&gt;inchikey -->
<g id="edge12" class="edge">
<title>ndc&#45;&gt;inchikey</title>
<path fill="none" stroke="black" d="M445.86,-78.88C440.9,-76.6 435.65,-74.21 430.75,-72 404.1,-60 374.02,-46.71 350.64,-36.44"/>
<polygon fill="black" stroke="black" points="351.95,-33.19 341.38,-32.38 349.13,-39.6 351.95,-33.19"/>
</g>
<!-- chebi -->
<g id="node12" class="node">
<title>chebi</title>
<ellipse fill="none" stroke="black" cx="35.75" cy="-162" rx="36" ry="18"/>
<text text-anchor="middle" x="35.75" y="-158.3" font-family="Times,serif" font-size="14.00">chebi</text>
</g>
<!-- chebi&#45;&gt;chembl -->
<g id="edge15" class="edge">
<title>chebi&#45;&gt;chembl</title>
<path fill="none" stroke="black" d="M63.24,-150.27C69,-148.12 75.05,-145.93 80.75,-144 133.49,-126.15 147.57,-124.5 200.75,-108 203.88,-107.03 207.12,-106.01 210.38,-104.98"/>
<polygon fill="black" stroke="black" points="211.66,-108.25 220.13,-101.89 209.54,-101.58 211.66,-108.25"/>
</g>
<!-- chebi&#45;&gt;drugbank -->
<g id="edge14" class="edge">
<title>chebi&#45;&gt;drugbank</title>
<path fill="none" stroke="black" d="M53.35,-146.15C64.51,-136.74 79.18,-124.37 91.79,-113.73"/>
<polygon fill="black" stroke="black" points="94.34,-116.17 99.72,-107.04 89.82,-110.81 94.34,-116.17"/>
</g>
<!-- chebi&#45;&gt;inchikey -->
<g id="edge13" class="edge">
<title>chebi&#45;&gt;inchikey</title>
<path fill="none" stroke="black" d="M34.28,-143.67C33.59,-123.58 35.81,-90.82 54.75,-72 82.15,-44.76 186.34,-30.31 253.06,-23.69"/>
<polygon fill="black" stroke="black" points="253.4,-27.17 263.02,-22.73 252.73,-20.2 253.4,-27.17"/>
</g>
</g>
</svg>
